<?xml version="1.0" encoding="utf-8"?>
<!-- Generator: Adobe Illustrator 21.1.0, SVG Export Plug-In . SVG Version: 6.00 Build 0)  -->
<svg version="1.1" xmlns="http://www.w3.org/2000/svg" xmlns:xlink="http://www.w3.org/1999/xlink" x="0px" y="0px"
	 viewBox="0 0 240 40" style="enable-background:new 0 0 240 40;" xml:space="preserve">
<style type="text/css">
	.st0{display:none;}
	.st1{display:inline;fill:#21284E;}
	.st2{fill:#FFFFFF;}
</style>
<g id="Layer_1" class="st0">
	<path class="st1" d="M0.6,25.7c1.8,0.8,3.7,1.4,5.6,1.4c2.8,0,4.9-1.5,4.9-3.8c0-4-7.4-5.4-7.4-10.4c0-3.3,2.6-6,7.6-6
		c1.8,0,3.6,0.3,5.3,0.9L16,10.2C14.5,9.4,12.6,9,10.9,9c-2.2,0-4.4,1-4.4,3.5c0,3.8,7.4,5,7.4,10.5c0,2.7-2,6.2-8,6.2
		c-2,0-3.9-0.3-5.7-1C0.1,28.2,0.6,25.7,0.6,25.7z M31.1,22.3h-0.2c-1.5,2.6-4.8,6.7-8.1,6.7c-2,0-3-2-3-3.8
		c0-4.8,4.2-12.5,10.5-12.5c0.8,0,1.6,0.1,2.4,0.4h2.8l-3.1,15.6h-2.8C29.6,28.6,31.1,22.3,31.1,22.3z M32.3,15.3
		c-0.6-0.3-1.5-0.5-2.2-0.5c-4.1,0-7.2,5.7-7.2,9.9c0,0.8,0.3,1.6,1.2,1.6c2.1,0,6.2-5.6,7.5-7.4C31.6,18.9,32.3,15.3,32.3,15.3z
		 M51.9,22.3h-0.2c-1.5,2.6-4.8,6.7-8.1,6.7c-2,0-3-2-3-3.8c0-4.8,4.2-12.5,10.5-12.5c0.8,0,1.6,0.1,2.4,0.4L54.9,6h2.8l-4.5,22.7
		h-2.8C50.4,28.6,51.9,22.3,51.9,22.3z M53.1,15.3c-0.6-0.3-1.5-0.5-2.2-0.5c-4.1,0-7.2,5.7-7.2,9.9c0,0.8,0.3,1.6,1.2,1.6
		c2.1,0,6.2-5.6,7.5-7.4C52.4,18.9,53.1,15.3,53.1,15.3z M61.6,23.7c0-3.9,2.6-11,9.4-11c3.3,0,5.1,2,5.1,5.3c0,3.8-2.9,11-9.4,11
		C63.4,29,61.6,27,61.6,23.7z M67.3,26.9c3.8,0,5.8-5,5.8-8.2c0-2-0.6-3.8-2.9-3.8c-3.7,0-5.7,5.1-5.7,8.2
		C64.6,24.9,65.1,26.9,67.3,26.9z M85.9,6h2.8l-4.5,22.7h-2.9L85.9,6z M96,13.1h2.8l-3.1,15.6h-2.9L96,13.1z M97.1,7.4h2.9l-0.6,2.8
		h-2.8C96.5,10.2,97.1,7.4,97.1,7.4z M108.8,19.4h0.2c1.6-2.6,4.5-6.7,7.9-6.7c1.9,0,2.6,1.3,2.6,3c0,0.7-0.1,1.4-0.2,2.1L117,28.6
		h-2.8l2.1-10.9c0.1-0.4,0.1-0.7,0.1-1.1c0-0.6-0.1-1.2-0.8-1.2c-2.2,0-6.1,5.9-7.4,7.7l-1.1,5.5h-2.9l3.1-15.6h2.8L108.8,19.4
		L108.8,19.4z"/>
	<rect x="128.4" y="4.6" class="st1" width="1.7" height="31.3"/>
	<path class="st1" d="M144.7,12.9h4.2l6,15.8h-4.2l-1.5-4H143l-1.6,4h-2.8L144.7,12.9L144.7,12.9z M148.3,22.1l-2.1-5.6l-2.1,5.6
		H148.3L148.3,22.1z M160.4,12.9h4.2V26h7.1v2.6h-11.3V12.9z M177.2,28.6V12.9h6.7c2.4,0,4.5,1,4.5,3.6c0,2.3-2.3,3.5-4.2,3.9l0,0
		c2.4,0.4,4.9,1.6,4.9,4.4c0,1.6-1,3.9-4.9,3.9L177.2,28.6L177.2,28.6z M181,26c0.4,0.1,1,0.1,1.7,0.1c0.9,0,2.1-0.4,2.1-1.7
		c0-2-1.7-2.5-3.8-2.5V26z M181,19.2c0.3,0.1,0.5,0.1,0.8,0.1c1.7,0,2.4-1.1,2.4-2.3c0-1.4-1.1-1.5-1.9-1.5H181V19.2L181,19.2z
		 M202.2,12.9h11.4v2.6H207v3.8h5.4v2.4H207V26h7.1v2.6h-11.3v-3.8h-4.2l-2.1,3.8h-3L202.2,12.9L202.2,12.9z M202.8,22.5v-5.3l0,0
		l-2.9,5.3H202.8L202.8,22.5z M220.1,12.9h4.2v7.6l0,0l5.5-7.6h3.3l-5.1,6.9l6.3,8.9h-5l-5-7.6l0,0v7.6h-4.2V12.9z"/>
</g>
<g id="Lag_2">
	<path class="st2" d="M2.6,25.7c1.8,0.8,3.7,1.4,5.6,1.4c2.8,0,4.9-1.5,4.9-3.8c0-4-7.4-5.4-7.4-10.4c0-3.3,2.6-6,7.6-6
		c1.8,0,3.6,0.3,5.3,0.9L18,10.2C16.5,9.4,14.6,9,12.9,9c-2.2,0-4.4,1-4.4,3.5c0,3.8,7.4,5,7.4,10.5c0,2.7-2,6.2-8,6.2
		c-2,0-3.9-0.3-5.7-1C2.1,28.2,2.6,25.7,2.6,25.7z M33.1,22.3h-0.2c-1.5,2.6-4.8,6.7-8.1,6.7c-2,0-3-2-3-3.8
		c0-4.8,4.2-12.5,10.5-12.5c0.8,0,1.6,0.1,2.4,0.4h2.8l-3.1,15.6h-2.8C31.6,28.6,33.1,22.3,33.1,22.3z M34.3,15.3
		c-0.6-0.3-1.5-0.5-2.2-0.5c-4.1,0-7.2,5.7-7.2,9.9c0,0.8,0.3,1.6,1.2,1.6c2.1,0,6.2-5.6,7.5-7.4C33.6,18.9,34.3,15.3,34.3,15.3z
		 M53.9,22.3h-0.2c-1.5,2.6-4.8,6.7-8.1,6.7c-2,0-3-2-3-3.8c0-4.8,4.2-12.5,10.5-12.5c0.8,0,1.6,0.1,2.4,0.4L56.9,6h2.8l-4.5,22.7
		h-2.8C52.4,28.6,53.9,22.3,53.9,22.3z M55.1,15.3c-0.6-0.3-1.5-0.5-2.2-0.5c-4.1,0-7.2,5.7-7.2,9.9c0,0.8,0.3,1.6,1.2,1.6
		c2.1,0,6.2-5.6,7.5-7.4C54.4,18.9,55.1,15.3,55.1,15.3z M63.6,23.7c0-3.9,2.6-11,9.4-11c3.3,0,5.1,2,5.1,5.3c0,3.8-2.9,11-9.4,11
		C65.4,29,63.6,27,63.6,23.7z M69.3,26.9c3.8,0,5.8-5,5.8-8.2c0-2-0.6-3.8-2.9-3.8c-3.7,0-5.7,5.1-5.7,8.2
		C66.6,24.9,67.1,26.9,69.3,26.9z M87.9,6h2.8l-4.5,22.7h-2.9L87.9,6z M98,13.1h2.8l-3.1,15.6h-2.9L98,13.1z M99.1,7.4h2.9l-0.6,2.8
		h-2.8C98.5,10.2,99.1,7.4,99.1,7.4z M110.8,19.4h0.2c1.6-2.6,4.5-6.7,7.9-6.7c1.9,0,2.6,1.3,2.6,3c0,0.7-0.1,1.4-0.2,2.1L119,28.6
		h-2.8l2.1-10.9c0.1-0.4,0.1-0.7,0.1-1.1c0-0.6-0.1-1.2-0.8-1.2c-2.2,0-6.1,5.9-7.4,7.7l-1.1,5.5h-2.9l3.1-15.6h2.8L110.8,19.4
		L110.8,19.4z"/>
	<rect x="130.4" y="4.6" class="st2" width="1.7" height="31.3"/>
	<path class="st2" d="M146.7,12.9h4.2l6,15.8h-4.2l-1.5-4H145l-1.6,4h-2.8L146.7,12.9L146.7,12.9z M150.3,22.1l-2.1-5.6l-2.1,5.6
		H150.3L150.3,22.1z M162.4,12.9h4.2V26h7.1v2.6h-11.3V12.9z M179.2,28.6V12.9h6.7c2.4,0,4.5,1,4.5,3.6c0,2.3-2.3,3.5-4.2,3.9l0,0
		c2.4,0.4,4.9,1.6,4.9,4.4c0,1.6-1,3.9-4.9,3.9L179.2,28.6L179.2,28.6z M183,26c0.4,0.1,1,0.1,1.7,0.1c0.9,0,2.1-0.4,2.1-1.7
		c0-2-1.7-2.5-3.8-2.5V26z M183,19.2c0.3,0.1,0.5,0.1,0.8,0.1c1.7,0,2.4-1.1,2.4-2.3c0-1.4-1.1-1.5-1.9-1.5H183V19.2L183,19.2z
		 M204.2,12.9h11.4v2.6H209v3.8h5.4v2.4H209V26h7.1v2.6h-11.3v-3.8h-4.2l-2.1,3.8h-3L204.2,12.9L204.2,12.9z M204.8,22.5v-5.3l0,0
		l-2.9,5.3H204.8L204.8,22.5z M222.1,12.9h4.2v7.6l0,0l5.5-7.6h3.3l-5.1,6.9l6.3,8.9h-5l-5-7.6l0,0v7.6h-4.2V12.9z"/>
</g>
</svg>
